<svg width="20" height="20" viewBox="0 0 20 20" fill="none" xmlns="http://www.w3.org/2000/svg">
<g id="icons/Search/Line">
<path id="Shape" fill-rule="evenodd" clip-rule="evenodd" d="M12.4227 13.5999C11.2938 14.4774 9.87523 15 8.33464 15C4.65274 15 1.66797 12.0152 1.66797 8.33333C1.66797 4.65143 4.65274 1.66666 8.33464 1.66666C12.0165 1.66666 15.0013 4.65143 15.0013 8.33333C15.0013 9.87392 14.4787 11.2925 13.6012 12.4214L18.0906 16.9107C18.416 17.2362 18.416 17.7638 18.0906 18.0893C17.7651 18.4147 17.2375 18.4147 16.912 18.0893L12.4227 13.5999ZM13.3346 8.33333C13.3346 11.0948 11.0961 13.3333 8.33464 13.3333C5.57321 13.3333 3.33464 11.0948 3.33464 8.33333C3.33464 5.57191 5.57321 3.33333 8.33464 3.33333C11.0961 3.33333 13.3346 5.57191 13.3346 8.33333Z" fill="#777E91"/>
</g>
</svg>
